<svg width="463.702" height="321.855" viewBox="0 0 122.688 85.158" xmlns="http://www.w3.org/2000/svg"><path d="M28.407 73.102l-.019-5.023-3.942-.005c-5.1-.01-9.446-.816-10.693-3.668-1.234-2.82-1.389-7.081-1.75-19.432 0 0-.287-16.172.428-19.266.603-3.04 1.635-6.06 5.262-7.754l.77-10.934S9.984 8.222 6.8 12.197C-1.095 22.05.055 21.513.063 44.397c.006 17.555.415 20.093 2.111 23.05C6.65 75.26 12.493 78.814 21.408 79.142c3.46.128 6.462.055 6.67-.148.206-.209.354-2.857.324-5.887z" fill="#67d3c3"/><path d="M9.315 9.987c4.904-3.153 7.528-3.512 26.234-3.591 21.973-.093 25.23.5 31.117 6.399 5.94 5.953 6.425 9.045 6.215 31.558-.162 17.568-.401 20.08-2.197 23.24-2.434 4.284-5.173 6.988-9.65 9.525-2.861 1.62-5.614 1.79-18.439 2.03l-16.537.046-6.09-11.402s24.658 1.077 34.176-.867c2.931-.898 5.547-3.51 6.45-6.438.846-2.742.802-33.129-.046-35.747-.82-2.512-3.507-5.25-6.244-6.113-1.255-.396-9.963-.673-19.35-.614 0 0-15.612-.724-17.067.105s-1.272.422-2.91 1.942c-1.64 1.518-2.424 5.072-2.545 5.647l-12.284.11.288-2.472c.91-5.422 5.081-10.91 8.88-13.353z" fill="#666"/><path d="M64.83 15.22l3.479 3.624 2.855-2.717c3.7-3.511 7.617-6.516 10.487-5.312 2.838 1.19 3.191 1.829 14.457 13.45 0 0 11.472 12.078 13.338 14.558 1.661 2.616 2.669 6.392 1.07 9.384l7.04 8.306s5.241-7.842 4.934-12.926c-.63-10.434-1.716-11.17-17.34-27.141C93.083 4.11 90.988 2.186 87.72 1.215 79.09-1.354 72.408.105 65.728 6.02c-2.594 2.295-4.718 4.416-4.726 4.707-.008.294 1.714 2.313 3.825 4.486z" fill="#67d3c3"/><path d="M122.194 47.739c-1.375 5.666-3.027 7.736-16.514 20.698-15.843 15.226-18.56 16.914-26.89 16.705-8.408-.212-10.942-1.985-26.321-18.428-12.002-12.83-13.563-14.813-14.443-18.34-1.194-4.78-1.076-8.627.415-13.552.953-3.147 2.829-5.17 11.948-14.19L62.122 9.22l12.422 4.018S56.007 29.47 50.458 37.445c-1.503 2.671-1.595 6.367-.228 9.11 1.28 2.568 22.275 24.536 24.696 25.845 2.326 1.254 6.16 1.382 8.738.118 1.182-.58 7.675-6.387 14.43-12.905 0 0 11.803-10.247 12.283-11.85.481-1.605.63-1.183.768-3.413.139-2.23-1.635-5.405-2.053-5.845l8.833-8.526 1.478 1.964c3.349 4.558 3.849 11.403 2.783 15.793z" fill="#666"/></svg>