<svg width="512" height="517.679" viewBox="0 0 135.467 136.969" xmlns="http://www.w3.org/2000/svg"><path d="M31.365 80.716l-.02-5.546-4.353-.006c-5.632-.01-10.43-.9-11.807-4.05-1.362-3.113-1.533-7.819-1.932-21.456 0 0-.317-17.856.473-21.273.665-3.356 1.805-6.69 5.81-8.562l.85-12.072s-9.362 1.326-12.878 5.715C-1.21 24.346.06 23.753.069 49.02c.007 19.384.458 22.186 2.332 25.453 4.94 8.626 11.393 12.549 21.237 12.91 3.821.141 7.135.061 7.364-.163.228-.23.391-3.155.358-6.5z" fill="#5df"/><path d="M10.285 11.027c5.415-3.48 8.312-3.877 28.967-3.965 24.262-.103 27.858.553 34.358 7.065 6.56 6.574 7.094 9.987 6.862 34.846-.179 19.397-.443 22.171-2.426 25.661-2.687 4.73-5.712 7.715-10.655 10.516-3.16 1.79-6.199 1.978-20.36 2.242l-18.259.05-6.724-12.589s27.226 1.189 37.735-.958c3.237-.99 6.126-3.874 7.123-7.108.933-3.028.885-36.58-.052-39.47-.904-2.774-3.871-5.798-6.894-6.75-1.386-.437-11-.743-21.365-.678 0 0-17.239-.8-18.845.117-1.606.914-1.404.465-3.213 2.143-1.81 1.677-2.676 5.6-2.81 6.235l-13.563.121.318-2.728c1.004-5.988 5.61-12.046 9.805-14.744z" fill="#666"/><path d="M71.584 16.805l3.84 4.002 3.152-3c4.086-3.877 8.41-7.195 11.579-5.866 3.134 1.314 3.524 2.02 15.964 14.85 0 0 12.666 13.337 14.727 16.075 1.834 2.889 2.946 7.058 1.182 10.362l7.772 9.17s5.788-8.658 5.449-14.271c-.696-11.52-1.896-12.333-19.146-29.968C102.779 4.538 100.465 2.414 96.856 1.342 87.328-1.495 79.95.117 72.575 6.647c-2.864 2.534-5.209 4.876-5.219 5.198-.007.324 1.894 2.553 4.224 4.953z" fill="#5df"/><path d="M134.921 52.711c-1.518 6.256-3.342 8.542-18.234 22.855C99.194 92.377 96.195 94.24 86.996 94.01c-9.283-.234-12.08-2.192-29.063-20.348-13.251-14.166-14.975-16.355-15.947-20.25-1.318-5.277-1.187-9.525.458-14.963 1.053-3.475 3.124-5.708 13.193-15.668l12.956-12.6 13.715 4.436S61.841 32.541 55.714 41.345c-1.66 2.95-1.761 7.03-.252 10.06 1.413 2.835 24.595 27.09 27.268 28.536 2.568 1.384 6.802 1.526 9.648.13 1.305-.64 8.475-7.052 15.934-14.249 0 0 13.031-11.314 13.562-13.085.53-1.771.696-1.305.847-3.768.154-2.463-1.805-5.968-2.267-6.453l9.754-9.414 1.632 2.168c3.697 5.033 4.249 12.591 3.073 17.438z" fill="#666"/><g font-size="6.095" font-family="Mallanna" stroke-width=".229"><g aria-label="Knott" style="line-height:1.25;-inkscape-font-specification:Mallanna" fill="#666"><path d="M18.923 136.59v-21.277h2.1v12.292l9.834-12.292h2.682l-8.403 10.415 8.448 10.861h-2.638l-7.151-9.252-2.772 3.441v5.811zM35.461 136.59v-15.735h1.967v2.101q.715-1.028 1.698-1.609 1.43-.894 3.219-.894 1.609 0 2.726.447 1.162.448 2.235 1.52.983.85 1.475 2.28.537 1.43.537 3.218v8.672h-2.012v-8.672q0-1.52-.402-2.548t-1.117-1.743q-.67-.715-1.654-1.028-.983-.357-1.788-.357-.85 0-1.743.312-.894.313-1.699 1.028-.626.67-1.073 1.744-.402 1.072-.402 2.458v8.806zM52.357 128.499q0-3.665 2.548-6.08 2.414-2.323 5.632-2.323 3.442 0 5.855 2.503 2.414 2.458 2.414 5.721 0 3.308-2.414 5.81-2.369 2.46-5.855 2.46-3.353 0-5.766-2.414-2.414-2.459-2.414-5.677zm1.967-.045q0 2.682 1.877 4.56 1.877 1.832 4.38 1.832 2.459 0 4.292-1.699 1.966-1.922 1.966-4.872 0-2.905-2.056-4.693-1.922-1.699-4.202-1.699-2.369 0-4.201 1.654-2.056 1.967-2.056 4.917zM73.768 136.59v-13.947h-3.353v-1.788h3.353v-5.542h1.966v5.542h3.755v1.788h-3.755v13.946zM83.512 136.59v-13.947h-3.353v-1.788h3.353v-5.542h1.966v5.542h3.755v1.788h-3.755v13.946z"/></g><g aria-label="JS" style="line-height:1.25;-inkscape-font-specification:Mallanna" fill="#5df"><path d="M100.631 115.335v14.527q0 1.43-.134 2.28-.09.804-.447 1.788-.626 1.43-1.967 2.235-1.34.804-3.084.804-2.19 0-3.8-1.207-1.966-1.564-1.966-4.157h2.056q0 1.565 1.207 2.593 1.073.939 2.548.939 2.235 0 2.995-1.878.492-1.028.492-3.263v-14.66zM103.581 130.711h2.101q0 1.967 1.252 3.219 1.251 1.207 3.218 1.207 1.699 0 2.995-1.207t1.296-3.084q0-2.146-1.788-3.353-.939-.626-2.995-1.207-2.548-.76-3.486-1.43-2.012-1.43-2.012-4.202 0-2.458 1.699-4.067 1.698-1.654 4.291-1.654 2.548 0 4.202 1.698 1.653 1.699 1.653 4.113h-2.056q0-1.654-1.162-2.772-1.117-1.117-2.637-1.117-1.788 0-2.86 1.117-1.029 1.118-1.029 2.638 0 1.743 1.475 2.637.85.581 3.62 1.385 2.549.67 3.845 2.325 1.34 1.609 1.34 3.8 0 2.547-1.832 4.38-1.788 1.832-4.559 1.832-2.548 0-4.336-1.34-2.235-1.744-2.235-4.918z"/></g></g></svg>