<?xml version="1.0" encoding="UTF-8" standalone="no"?>
<!-- Created with Inkscape (http://www.inkscape.org/) -->

<svg
   width="135.46667mm"
   height="135.46667mm"
   viewBox="0 0 135.46667 135.46667"
   version="1.1"
   id="svg5"
   sodipodi:docname="logo.svg"
   inkscape:version="1.2.1 (0f2f062aeb, 2022-09-21, custom)"
   xml:space="preserve"
   xmlns:inkscape="http://www.inkscape.org/namespaces/inkscape"
   xmlns:sodipodi="http://sodipodi.sourceforge.net/DTD/sodipodi-0.dtd"
   xmlns:xlink="http://www.w3.org/1999/xlink"
   xmlns="http://www.w3.org/2000/svg"
   xmlns:svg="http://www.w3.org/2000/svg"><sodipodi:namedview
     id="namedview7"
     pagecolor="#ffffff"
     bordercolor="#666666"
     borderopacity="1.0"
     inkscape:pageshadow="2"
     inkscape:pageopacity="0.0"
     inkscape:pagecheckerboard="true"
     inkscape:document-units="px"
     showgrid="false"
     showborder="false"
     inkscape:snap-bbox="true"
     inkscape:bbox-paths="true"
     inkscape:bbox-nodes="true"
     inkscape:snap-bbox-edge-midpoints="true"
     inkscape:snap-bbox-midpoints="false"
     inkscape:zoom="1"
     inkscape:cx="248.5"
     inkscape:cy="240.5"
     inkscape:window-width="1366"
     inkscape:window-height="703"
     inkscape:window-x="0"
     inkscape:window-y="28"
     inkscape:window-maximized="1"
     inkscape:current-layer="g17660"
     inkscape:showpageshadow="2"
     inkscape:deskcolor="#ffffff"
     showguides="true" /><defs
     id="defs2"><linearGradient
       inkscape:collect="always"
       id="linearGradient16580"><stop
         style="stop-color:#e3fc06;stop-opacity:1;"
         offset="0"
         id="stop16576" /><stop
         style="stop-color:#28ff1c;stop-opacity:1;"
         offset="1"
         id="stop16578" /></linearGradient><linearGradient
       id="linearGradient11859"><stop
         style="stop-color:#9824d4;stop-opacity:1;"
         offset="0"
         id="stop11857" /><stop
         style="stop-color:#1fb2b5;stop-opacity:1;"
         offset="1"
         id="stop11855" /></linearGradient><linearGradient
       id="linearGradient11740"><stop
         style="stop-color:#1fb2b5;stop-opacity:1;"
         offset="0"
         id="stop11744" /><stop
         style="stop-color:#afd424;stop-opacity:1;"
         offset="1"
         id="stop11746" /></linearGradient><linearGradient
       id="linearGradient11571"
       inkscape:swatch="solid"><stop
         style="stop-color:#177486;stop-opacity:1;"
         offset="0"
         id="stop11569" /></linearGradient><linearGradient
       inkscape:collect="always"
       xlink:href="#linearGradient16580"
       id="linearGradient16582"
       x1="-31.851248"
       y1="191.58533"
       x2="-28.833031"
       y2="191.58533"
       gradientUnits="userSpaceOnUse"
       gradientTransform="rotate(135,54.603698,203.89321)" /></defs><g
     inkscape:label="Layer 1"
     inkscape:groupmode="layer"
     id="layer1"
     transform="translate(-105.67266,-468.61292)"><g
       id="g6608"
       transform="matrix(0.88665386,0,0,0.88665386,-48.245875,13.268449)" /><g
       id="g8091"
       transform="matrix(9.2678353,0,0,9.2678353,-1049.7649,-811.14877)"><rect
         style="opacity:1;fill:none;fill-opacity:1;stroke:none;stroke-width:1.17032;stroke-dasharray:none;stroke-opacity:1;paint-order:markers fill stroke"
         id="rect17714"
         width="14.616862"
         height="14.616862"
         x="124.67178"
         y="138.08636" /><g
         id="g17660"
         transform="matrix(0.99979351,0,0,0.99979351,13.206527,-9.2811385)"><path
           id="rect15178"
           style="opacity:1;fill:url(#linearGradient16582);fill-opacity:1;stroke-width:0.887204;stroke-dasharray:none;paint-order:markers fill stroke"
           d="m 125.44478,152.46854 -1.76417,2.301 -2.64888,-2.44565 2.39313,-1.87527 z"
           sodipodi:nodetypes="ccccc" /><path
           id="path17416"
           style="opacity:1;fill:#4d4d4d;fill-opacity:1;stroke-width:0.887204;stroke-dasharray:none;paint-order:markers fill stroke"
           d="m 111.96341,156.85428 1.76417,-2.301 2.64889,2.44566 -2.39314,1.87526 z"
           sodipodi:nodetypes="ccccc" /><path
           d="m 119.93814,150.51614 c 0.28411,0.20937 0.69089,0.5659 0.9036,0.79254 l 0.38671,0.41179 0.62477,-0.58439 c 0.7505,-0.70202 1.47625,-0.94301 2.22915,-0.74028 1.03373,0.27855 1.60771,1.01423 1.60771,2.06109 0,0.74019 -0.13462,1.0231 -0.83271,1.74829 l -0.53675,0.55764 0.55588,0.60306 c 0.64548,0.70025 0.81358,1.07588 0.81358,1.81754 0,1.14236 -0.9742,2.09736 -2.13856,2.09634 -0.63569,-5.4e-4 -1.14979,-0.25999 -1.79624,-0.90644 -0.23027,-0.23026 -0.47093,-0.41828 -0.53514,-0.41828 -0.0641,0 -0.32218,0.21401 -0.57348,0.47519 -0.60101,0.62529 -1.05452,0.85017 -1.71448,0.85017 -0.68174,0 -1.37796,-0.35514 -2.04285,-1.04236 l -0.51736,-0.53471 -0.60917,0.53811 c -0.73141,0.64613 -1.03321,0.77388 -1.82809,0.77388 -1.2008,0 -2.02817,-0.87681 -2.02817,-2.14944 0,-0.74993 0.32357,-1.37638 1.03975,-2.01178 l 0.2832,-0.25163 -0.53272,-0.57788 c -0.63328,-0.68708 -0.79042,-1.05485 -0.79042,-1.85014 0,-1.17448 0.8524,-2.03909 2.01016,-2.03909 0.82501,0 1.18656,0.15227 1.87907,0.79042 l 0.57788,0.53267 0.25162,-0.28318 c 0.13835,-0.156 0.48407,-0.45357 0.76837,-0.66155 0.42524,-0.31104 0.65068,-0.37836 1.2723,-0.37836 0.62348,0 0.84575,0.0663 1.27234,0.38068 z m -2.40193,0.96177 -0.59354,0.5471 0.48727,0.54627 c 1.54819,1.73584 4.89565,5.2386 5.30339,5.54949 0.26277,0.20055 0.61545,0.36444 0.78341,0.36444 0.79404,0 1.37815,-0.62771 1.37815,-1.48103 0,-0.3881 -0.29666,-0.73071 -2.81976,-3.25363 -2.786,-2.786 -2.82653,-2.81981 -3.38259,-2.81981 -0.4753,0 -0.6551,0.085 -1.15633,0.54712 z m -4.44702,-0.15971 c -0.30686,0.30687 -0.38717,0.50472 -0.38717,0.9516 0,0.55737 0.0325,0.59753 2.75007,3.31618 1.76532,1.76652 2.88056,2.78349 3.11454,2.83998 0.53709,0.12953 0.89324,-0.009 1.54328,-0.59868 l 0.58244,-0.52886 -1.44389,-1.55748 c -0.79413,-0.85657 -2.16182,-2.28931 -3.03934,-3.18382 -1.54931,-1.57929 -1.61184,-1.62633 -2.16388,-1.62633 -0.4517,0 -0.64807,0.0798 -0.95582,0.38718 z m 9.34406,0.43082 -0.60027,0.55328 0.95875,0.9652 0.95875,0.96521 0.34262,-0.35886 c 0.9328,-0.97644 1.05466,-1.65033 0.4141,-2.29075 -0.30222,-0.30222 -0.5069,-0.38718 -0.93066,-0.38718 -0.45357,0 -0.64261,0.0915 -1.14357,0.55328 z m -9.73147,5.16868 c 0,0.73707 0.56271,1.30233 1.29649,1.30233 0.42292,0 0.63981,-0.10399 1.14667,-0.55012 l 0.62497,-0.55018 -0.97078,-0.98187 -0.97082,-0.98192 -0.56327,0.61712 c -0.46498,0.50942 -0.56326,0.70922 -0.56326,1.14464 z"
           style="fill:#4d4d4d;stroke-width:0.0143005"
           id="path14869" /></g></g></g></svg>
